<?xml version="1.0"?>
<svg id="Layer_1" data-name="Layer 1" xmlns="http://www.w3.org/2000/svg" viewBox="0 0 49.59 50">
  <path d="M-.85,50.87V-.87s51.31,0,51.31,0v51.74H-.85Z" fill="#121210"></path>
  <g>
    <path d="M28.12,12.99s-.01-.51,0-.51h-3.27s-3.69,0-3.69,0c0,0,0,.54,0,.54,1.46.12,1.9,1.45,1.9,3.22v17.86c0,1.22-.45,2.46-1.4,2.76-.18.06-.5.11-.5.11v.54s3.69,0,3.69,0h3.28s0-.54,0-.54c0,0-.33-.05-.5-.11-.95-.3-1.39-1.54-1.39-2.76v-17.86c0-1.77.44-3.13,1.91-3.25Z" fill="#f0f0f0"></path>
    <path d="M34.89,33.7c.38-.04.71-.08,1.05-.2,1.3-.46,1.25-1.9,1.21-3.06l-.23-3.41-.46-7.06-5.42,13.9-.9-2.2-2.53-6.09.02-7.7,3.37,7.79,1.03,2.42,2.96-7.54,1.62-4.08h5.05s0,.54,0,.54c-.45.05-.82.13-1.18.37-.8.53-.78,1.75-.71,2.66l.72,10.52c.09,1.27.36,2.64,1.76,2.98.27.07.49.1.8.15v.54h-8.14v-.54Z" fill="#f0f0f0"></path>
    <path d="M21.96,32.33c-.29-.47-.51-.96-.71-1.47l-4.66-14.36h-5.98s0,.55,0,.55c.6.07,1.15.2,1.64.54.85.58,1.04,1.33.71,2.32l-1.73,5.31-1.61,4.99c-.25.76-.53,1.47-.95,2.13-.5.8-1.23,1.27-2.13,1.38v.54s5.82,0,5.82,0v-.54c-.47-.04-.87-.07-1.28-.27-.55-.27-.78-.85-.76-1.51.08-.54.17-1.03.33-1.52l.8-2.47h5.44s1.07,3.34,1.07,3.34c.11.34.18.68.22,1.03,0,.62-.32,1.11-.88,1.26-.29.08-.56.11-.9.15v.54h1.86s0,0,0,0h5.82s0-.54,0-.54c-.9-.1-1.64-.58-2.13-1.38ZM11.78,26.91l2.35-7.34,2.42,7.34h-4.77Z" fill="#f0f0f0"></path>
  </g>
</svg>